<?xml version="1.0" encoding="utf-8"?>
<!-- Generator: Adobe Illustrator 19.1.0, SVG Export Plug-In . SVG Version: 6.00 Build 0)  -->
<svg version="1.1" id="Layer_1" xmlns="http://www.w3.org/2000/svg" xmlns:xlink="http://www.w3.org/1999/xlink" x="0px" y="0px"
	 width="1000px" height="1000px" viewBox="0 0 1000 1000" style="enable-background:new 0 0 1000 1000;" xml:space="preserve">
<g>
	<path d="M56.5,556.8c2.2,1,4.8,1.6,7.3,1.5c2.1,0,4.1-0.3,6.1-1.2c1.9-0.9,3.6-2.1,5.1-3.6c1.3-1.4,2.5-3,3.3-4.7
		c0.8-1.7,1.5-3.6,1.7-5.5c0.5-4.1-0.4-8.2-3.4-11c-1.5-1.4-3.4-2.4-5.3-2.7c-2-0.4-4.1-0.3-5.9,0.8c-1.7,1-3,2.9-3.6,5
		c-0.6,2-0.5,4.3,0.3,6.2c0.7,1.7,1.9,3.1,3.4,4c1.3,0.8,3,1.4,4.5,1.4c-0.1,0.3-0.3,0.4-0.5,0.6c-0.8,0.8-1.7,1.5-2.7,1.9
		c-1.1,0.4-2.1,0.7-3.3,0.7c-1.5,0-3-0.3-4.4-0.9c-1.2-0.5-2.4-1.2-3.3-2.3c-1-1.1-1.7-2.5-2.1-3.9c-0.5-1.7-0.7-3.6-0.6-5.3
		c0.1-1.7,0.6-3.4,1.3-5c0.8-1.7,2-3.4,3.4-4.7c1.7-1.7,3.7-3.2,5.8-4.4c2.1-1,4.3-1.8,6.6-2.2c2.6-0.4,5.1-0.3,7.7,0.4
		c3.1,1,5.8,2.8,8.2,5.2c4.5,4.4,7.8,9.4,10.5,15.2c2.1,4.5,5.1,8.7,8.7,12c3.9,3.7,8.3,6.6,13,8.8c0.5,0.3,1.1,0.4,1.6,0.7h-8.3
		c-3.8,0-6.9,3.3-6.9,7.4c0,4.1,3.1,7.4,6.9,7.4l53.8,0.1v0.1h683.5v-0.1l49-0.1c2.1,3.7,4.5,7.2,7.2,9.7
		c-8.3,6.1-12.6,14.9-10.2,26.6c0.7,2.8,4,7.5,4,7.5s6.2-3.2,7.7-4.2c3.1-2.2,6-5,7.6-8.5c0.8-1.7,1.3-3.5,1.4-5.3
		c0.1-1.3,0-2.6-0.3-3.8c-0.1-0.7-0.3-1.3-0.5-2c-0.1-0.4-0.4-1.9-0.8-2.1c4.7,2.2,9.6,6,14.4,7.1c-1.1,8.6,3,16.7,14.9,16.5
		c5.5-0.5,10.3-2.4,15.3-1.8c-4.3-14.7-13.4-27.5-28.2-17.3c-2.7-0.8-5.1-2.7-7.8-3.6c6.5-0.9,14.7-4.3,19.4-12.4
		c-9.9-8.2-24.7-12.2-32.8,1.1c-1.9-2.4-3.8-4.9-5.5-7.5c3.4-0.5,5.9-3.6,5.9-7.4c0-4.1-3.1-7.4-6.9-7.4h-8.3
		c0.5-0.3,1.1-0.4,1.6-0.7c4.7-2.2,9.2-5.2,13-8.8c3.6-3.3,6.6-7.4,8.7-12c2.6-5.8,6-10.8,10.5-15.2c2.4-2.4,5-4.1,8.2-5.2
		c2.6-0.7,5.1-0.9,7.7-0.4c2.3,0.4,4.5,1.1,6.6,2.2c2.1,1.1,4.1,2.6,5.8,4.4c1.4,1.3,2.6,3,3.4,4.7c0.7,1.6,1.2,3.3,1.3,5
		c0.2,1.7-0.1,3.6-0.6,5.3c-0.4,1.4-1.1,2.8-2.1,3.9c-0.9,1-2.1,1.7-3.3,2.3c-1.4,0.6-2.9,0.9-4.4,0.9c-1.2,0-2.2-0.3-3.3-0.7
		c-1-0.4-1.9-1.1-2.7-1.9c-0.2-0.2-0.4-0.3-0.5-0.6c1.6,0,3.2-0.6,4.5-1.4c1.5-1,2.7-2.3,3.4-4c0.8-1.9,0.9-4.2,0.3-6.2
		c-0.6-2.1-1.8-3.9-3.6-5c-1.8-1-4-1.2-5.9-0.8c-1.9,0.3-3.8,1.3-5.3,2.7c-3,2.8-3.9,6.9-3.4,11c0.2,1.9,0.9,3.8,1.7,5.5
		c0.8,1.7,2,3.3,3.3,4.7c1.5,1.5,3.2,2.7,5.1,3.6c2,0.9,4,1.2,6.1,1.2c2.5,0.1,5-0.4,7.3-1.5c7.7-3.6,11.1-11.7,10.3-19.6
		c-0.3-2.8-1-5.5-2.3-8c-1.2-2.5-2.9-4.9-4.9-6.9c-2.2-2.3-4.9-4.3-7.7-5.7c-2.8-1.5-5.8-2.5-8.8-3c-3.6-0.6-7.3-0.4-10.9,0.7
		c-4.3,1.3-8,3.8-11.2,7c-0.7,0.6-1.3,1.3-2,1.9c-0.2-2.9-0.6-5.8-1.2-8.5c-2-7.6-6.1-13.6-12.8-17.2c-3.1-1.7-6.4-2.7-9.7-3.1
		c-3.3-0.3-6.8-0.1-10,0.8c-3.1,1-5.9,2.6-8.3,4.8c-2.6,2.3-4.6,5.1-6.1,8.1c-0.3,0.6-0.6,1.3-0.9,2c-1.6-10.8-6.3-21-13.7-27.6
		c3.2-1.7,6.1-3.7,8.4-5.9c5.8,8.5,14.4,13.2,26.2,11.2c2.8-0.6,7.6-3.7,7.6-3.7s-0.9-1.2-1.2-2.4c-4-9.8-12.5-18.3-24.1-13.6
		c2.4-4.6,6.4-9.4,7.7-14.1c8.6,1.4,16.8-2.3,17-14.3c-0.3-5.5-1.2-15.3-1.2-15.3c-14.8,3.8-28,12.3-18.3,27.5
		c-0.9,2.7-2.9,5-3.9,7.6c-0.6-6.6-3.8-14.8-11.7-19.9c-8.6,9.6-13.1,24.3-0.2,32.8c-3.4,2.5-6.9,5-10.5,6.9c-1.6-1-3.2-1.8-4.9-2.5
		c-0.4-2.8-0.9-5.6-1.9-7.8c7.5-4.4,11.5-12.5,4-21.9c-3.7-4.1-10.7-11-10.7-11.1c-9,12.3-13.8,27.3,3.4,32.9
		c0.6,1.5,0.9,4.2,1.2,6.6c-9.3-2.5-19.6-1.3-26.8,2.2c-10.1,5-14.1,14.8-13.8,25.8c0.2,11,4.8,22.4,11.8,29.1
		c3.7,3.5,8,5.7,12.8,6.6c3.9,0.7,7.6,1,11.4-0.5c7.4-2.8,12.6-10.6,13.5-18.3c0.9-7.9-2.4-15.7-7.6-20c-6.6-5.4-13-5.1-17.3-2.8
		c-4,2-6.8,6.6-6.8,10.9c-0.1,3.9,3.3,8.7,7.4,9.2c3.1,0.5,5.8-2.8,5.8-6.2c0-2.5-1.5-4.8-3.5-5.8c1.2-1.6,5.3-1.5,8.2,0.7
		c3.6,2.6,6.3,8.6,4.7,14.1c-1.6,5.4-7.2,10.3-13.6,9.3c-6.4-1-13.1-8-15.4-16.6c-2.3-8.4-0.2-18.5,6.4-23.4
		c6.7-5,17.9-4.8,26.2,0.7c8.3,5.6,13.5,16.6,13.5,27.8c0,11.2-5.1,22.8-14.5,30.4c-11,8.8-25.4,9.9-39.4,9.4
		c-1.1-2.9-2.9-5.7-5.4-8.6c-0.4-0.4-0.9-0.8-1.5-1.4c-0.7-0.6-2.1-1.7-2.3-2.3l0.9-14.9h-0.1c0.3-1.6,0.1-4.2-2.9-6.6
		c-1.4-1.2-3.3-2.1-5.5-2.9l-0.5-85.1c22.6-2.1,27.8-30.9,28.1-32.8c1-6.2,18.4-129.6,20.3-148.5c0.7-7.3,1.1-18.2-5.4-23
		c-0.7-0.3-1.3-0.6-1.8-0.8c-2.1-0.9-4.8-1.2-6.9-1.7c-4-0.9-8-1.7-12-2.6c-5.2-1.1-10.3-2.3-15.5-3c-2.5-0.3-4.6,0.1-6,1.6
		c-2,2.1-1.9,4.8-1.6,7.5c0,0.7,13.1,3.9,14.5,4.2c5.3,1.5,10.6,2.9,15.9,4.2c6.2,1.5,6.4,8,4.8,17.4c-1.1,5.9-1.9,12-2.7,17.8
		c-0.2,1.5-0.4,3-0.6,4.6c-2.8,20.4-5.6,40.7-8.4,61.1c-2,14.6-4,29.2-6,43.9c-3.6,25.6-11.5,31.6-16.9,32.6l-1.1-174.1
		c0-0.2-0.2-19.6-19.9-22.8c-6.5-1-13.1-1.9-19.6-2.6c-3.3-0.3-6.6-0.6-9.8-0.9c-1.9-0.1-6.3-1.4-7.8-0.1c-0.9,0.7-5.2,4.4-4.4,8.1
		c0.4,2,2.1,3.3,5.1,4c6.8,1.5,24.2,5,31.6,6.6c2.6,0.6,4.9,2.2,6.1,4.6c1.7,3.3,3.3,8.6,2.8,17.2c-0.5,9.8-0.9,86.5-1.1,151.6
		c-1.7-3.1-3.2-6.6-4.4-10.4c-4.8-14.7-36.2-148.4-36.9-151.6c-0.3-1.4-3.9-19.4-21-20.5c-9-0.6-18-0.7-27-0.8
		c-4.1-0.1-8.2-0.1-12.3-0.1c-3,0-6.2-0.6-9.2,0.5c-2.1,0.8-6,3-5.6,5.7c0.3,2.4,3.2,2.9,6,3.2c8.2,0.8,16.4,1.8,24.7,3
		c4.1,0.6,8.2,1.1,12.3,1.8c3.3,0.6,7,0.4,10,2.3c2.6,1.7,4.2,4.6,5.2,7.6c1.7,5,3.6,10,4.8,15.1c4.1,16.6,8.4,33.2,12.7,49.7
		c5.4,20.8,10.8,41.7,16.3,62.5c2.2,8.3,4.3,16.5,6.5,24.8c1.4,5.3,2.4,11,4.4,16.1c1.4,3.4,3.4,6.4,5.9,9.1c0.8,0.8,7.5,5.7,7.5,6
		c-0.1,36.5,0.1,67,0.1,87.3c-1.9,0.7-3.5,1.6-4.7,2.6c-2.9,2.4-3.2,5-2.9,6.6h-0.1l0.9,14.9c-0.3,0.6-1.6,1.7-2.3,2.3
		c-0.6,0.5-1.1,1-1.5,1.4c-2,2.2-3.5,4.4-4.6,6.7c-15.3,0-30.6,0.3-45.8,0.3c-24.5,0-49.1,0-73.6,0c-1.1-2.3-2.7-4.6-4.7-7
		c-0.4-0.4-0.9-0.8-1.5-1.4c-0.7-0.6-2.1-1.7-2.3-2.3l0.9-14.9h-0.1c0.3-1.6,0.1-4.2-2.9-6.6c-1.4-1.2-3.3-2.1-5.5-2.9
		c0,0-0.2-38.8-0.2-38.8c0.1-0.8,10.9-1.4,11.8-1.5c14.4-0.9,28.5,2.8,42,7.7c7.9,2.9,15.7,6.1,23.3,9.8c0.1,0,0.2,0.1,0.3,0.1
		c0,0-5.7-29.8-6.7-115.3C690.1,244.5,612,217.5,612,217.5s-77.8,26.9-79.4,165.7c-1,85.6-6.8,115.4-6.8,115.4
		c7.9-4,16.2-7.3,24.5-10.3c7.7-2.7,15.5-5.2,23.5-6.5c8.1-1.4,16.1-1.1,24.2-0.4c1.4,0.1,2.7,0.3,4.1,0.4c0,15.6,0.1,29.1,0.1,39.7
		c-1.9,0.7-3.5,1.6-4.7,2.6c-2.9,2.4-3.2,5-2.9,6.6h-0.1l0.9,14.9c-0.3,0.6-1.6,1.7-2.3,2.3c-0.6,0.5-1.1,1-1.5,1.4
		c-2,2.3-3.6,4.6-4.7,7c-33.7,0-67.4,0-101,0c-2.7-14.7-4.4-23.9-4.4-23.9s-2,0.1-6,0.5c0.6-0.1-2.8-24.1-3.2-26
		c-1.6-8.3-4.2-16.5-9-23.9c-4.8-7.5-9.9-14.3-10.4-23.2c-0.5-9.6,4.5-20.1,7.1-29.4c3-10.6,5.9-21.2,8.9-31.8
		c8-29.2,17.4-58.9,21.8-88.8c0.2-0.9,0.2-1.8,0.4-2.7c3.2-29,1.7-95.6-3.7-95.8c-16.1-0.3-23.7,45.3-32.6,72.8
		c-4.4,13.9-18,56.9-30.5,97.1c-20-55.4-43.9-121.4-52.3-143.3c-14.9-39.2-14.6-22.5-18.8-14.3c-4.3,8.3,1,78.4,8.1,107.7
		c8.2,33.5,19.9,66.4,30.5,99.3c4.1,12.6,11.3,25.7,7.4,39c-1.5,5.1-3.3,10.1-6.6,14.6c-10.7,14.7-13.6,31.6-15.5,48.6
		c-4-0.4-6-0.5-6-0.5s-1.7,9.2-4.4,23.9c-37.1,0-74.2,0-111.3,0c-1.1-2.3-2.7-4.6-4.7-7c-0.4-0.4-0.9-0.8-1.5-1.4
		c-0.7-0.6-2.1-1.7-2.3-2.3l0.9-14.9h-0.1c0.3-1.6,0.1-4.2-2.9-6.6c-1.4-1.2-3.3-2.1-5.5-2.9l-0.4-70.8h19.9
		c19.6-2,34.5-7.9,44.4-17.8c22-22,15.6-63.9,15.5-92.3c-0.1-36.7-1.2-73.4-1.2-110.2c0-6.9-5.5-12.5-12.2-12.5s-12.2,5.6-12.2,12.5
		c0,7.2,0,14.4,0,21.6c0,47.4,1.6,95.1,0,142.5c-0.9,28-27.2,32.5-51,32.2V241.5c0-6.9-5.4-12.5-12.1-12.5
		c-6.7,0-12.1,5.6-12.1,12.5v184.2c-12.6-0.1-25.5-1.4-36.6-7c-13.9-7-16.5-21.2-16.1-36.3c0.3-12.5,0.9-24.9,0.9-37.4
		c0-38.3,0-76.7,0-115c0-6.9-5.4-12.5-12.1-12.5s-12.1,5.6-12.1,12.5c0,17.1,0,34.3,0,51.4c0,23.7,0,47.5,0,71.3
		c0,25.9-5.9,56.2,13.1,76.8c11.5,12.4,29.6,19.2,54.3,20.8v0.1h11.1c0,29.3,0.1,53.9,0.1,71.1c-1.9,0.7-3.5,1.6-4.7,2.6
		c-2.9,2.4-3.2,5-2.9,6.6h-0.1l0.9,14.9c-0.3,0.6-1.6,1.7-2.3,2.3c-0.6,0.5-1.1,1-1.5,1.4c-2.5,2.8-4.3,5.7-5.4,8.6
		c-13.7,0-27.1-1.7-36.7-9.4c-9.4-7.6-14.5-19.2-14.5-30.4c0-11.2,5.3-22.2,13.5-27.8c8.3-5.5,19.5-5.7,26.2-0.7
		c6.7,5,8.8,15,6.4,23.4c-2.3,8.6-9.1,15.6-15.4,16.6c-6.4,1-12-3.9-13.6-9.3c-1.6-5.5,1.1-11.4,4.7-14.1c2.9-2.2,7-2.3,8.2-0.7
		c-2,1-3.5,3.2-3.5,5.8c0,3.4,2.6,6.7,5.8,6.2c4-0.5,7.5-5.3,7.4-9.2c0-4.4-2.8-8.9-6.8-10.9c-4.3-2.3-10.7-2.6-17.3,2.8
		c-5.2,4.3-8.5,12.2-7.6,20c0.9,7.7,6.1,15.5,13.5,18.3c3.8,1.5,7.5,1.2,11.4,0.5c4.8-0.9,9.1-3.1,12.8-6.6
		c7-6.7,11.6-18.1,11.8-29.1c0.2-10.9-3.8-20.8-13.8-25.8c-10.2-5-26.4-5.2-37.4,2.7c-9,6.5-14.5,17.8-16.3,29.7
		c-0.3-0.7-0.6-1.4-0.9-2c-1.5-3.1-3.6-5.9-6.1-8.1c-2.4-2.2-5.3-3.8-8.3-4.8c-3.1-0.9-6.5-1.1-9.7-0.8c0.1-2.3,0.1-4.8,0.6-6
		c14.2-4.1,10.8-16.5,3.7-26.9c-2.2,3.5-5.9,5.6-9.1,8.8c-6.4,7.5-3.3,14.2,2.7,18.1c-1,2-1.5,4.4-1.9,6.8c-1.1,0.3-2.1,0.6-3.1,1
		c-2-3.2-6.3-8.4-7.1-10.8c10.6-17.7-4.8-27-21.8-30.8c1.1,5.7-0.7,11.3-0.9,17.6c0.6,13.7,10.2,17.6,19.9,15.8
		c1.1,3.5,3.4,7,5.7,10.4c-5.9,3.6-9.6,9.4-11.5,16.5c-0.7,2.7-1.1,5.6-1.2,8.5c-0.7-0.6-1.3-1.3-2-1.9c-3.2-3.2-6.9-5.7-11.2-7
		c-3.6-1.1-7.3-1.3-10.9-0.7c-3.1,0.4-6,1.5-8.8,3c-2.8,1.4-5.4,3.4-7.7,5.7c-2,2-3.6,4.4-4.9,6.9c-1.2,2.5-2,5.2-2.1,8
		C45.8,545.1,48.4,553.6,56.5,556.8z M856.5,556.7c7.8-6.9,12.7-16.6,14.8-27.2c0.7,1.6,1.7,3.1,2.8,4.4c1.9,2,4.2,3.5,6.8,4.3
		c2.4,0.7,5,1,7.4,0.7c2.4-0.3,5-1.2,6.8-2.8c1.7-1.5,2.7-3.3,3.2-5.5c0.5-2.1,0.4-4.4,0-6.5c-0.7-3.1-2.5-5.6-5.2-7
		c-1.2-0.6-2.4-1-3.7-1.1c-1.2-0.1-2.6,0-3.8,0.4c-2.5,0.9-4.8,2.9-5.8,5.5c-0.7,2-0.7,4,0,5.9c-0.8-1-1.4-2.2-1.7-3.5
		c-0.4-1.9-0.5-3.9-0.2-5.9c0.2-2.2,0.9-4.4,1.9-6.4c1-2.1,2.4-3.9,4.1-5.4c1.6-1.5,3.5-2.5,5.4-3.1c2.2-0.6,4.5-0.8,6.9-0.5
		c2.4,0.3,4.9,1,7,2.2c4.5,2.5,7.3,6.6,8.6,11.9c0.8,3.7,1.1,7.6,0.8,11.4c-0.2,3.6-1.1,7.1-2.6,10.3c-1.7,3.6-4,6.7-6.8,9.4
		c-3.2,3-6.9,5.5-10.8,7.3c-4.1,1.9-8.5,3.2-12.9,3.9c-5,0.8-9.9,1-14.8,0.5c-3.4-0.3-6.8-0.9-10.1-1.6
		C855.3,557.7,856,557.2,856.5,556.7z M572.1,458.4l-6.2,2.3l8.7-19.5c18.5-41.5,60.6-39.6,77.3,3.6l6.2,15.9
		C630.1,448.5,600.4,447.7,572.1,458.4z M416.4,468.2l11.8-5.3l11.5,5.8l-0.3,11l-11.8,5.3l-11.5-5.8L416.4,468.2z M403.9,531.3
		l15.6,1.1v-19.8l-9.3,0c1.7-4.1,16.3-12.8,16.3-12.8s14.2,8.9,15.9,12.8l-10.4,0v19.8l16.7-1.1c0.7,2.5,1.3,4.7,1.7,6.3
		c-1,0.4-3.8,1-3.8,1s1.1,6.7,2.9,17.8c-15.4,0-30.8,0-46.2,0c1.8-11.1,2.9-17.8,2.9-17.8s-2.8-0.6-3.8-1
		C402.6,535.9,403.2,533.7,403.9,531.3z M102.8,516.9c1.3-5.2,4-9.4,8.6-11.9c2.1-1.1,4.6-1.9,7-2.2c2.3-0.3,4.6-0.1,6.9,0.5
		c2,0.6,3.9,1.7,5.4,3.1c1.7,1.5,3.1,3.3,4.1,5.4c1,2,1.7,4.2,1.9,6.4c0.2,2,0.2,4-0.2,5.9c-0.3,1.3-0.9,2.5-1.7,3.5
		c0.7-1.8,0.7-3.8,0-5.9c-1-2.6-3.3-4.6-5.8-5.5c-1.2-0.4-2.6-0.5-3.8-0.4c-1.3,0.1-2.6,0.5-3.7,1.1c-2.7,1.4-4.5,3.8-5.2,7
		c-0.4,2.1-0.5,4.4,0,6.5c0.5,2.2,1.6,4,3.2,5.5c1.8,1.6,4.4,2.4,6.8,2.8c2.4,0.3,5,0,7.4-0.7c2.6-0.8,4.9-2.3,6.8-4.3
		c1.2-1.3,2.1-2.8,2.8-4.4c2.1,10.6,7,20.3,14.8,27.2c0.6,0.5,1.2,1,1.8,1.5c-3.3,0.7-6.7,1.3-10.1,1.6c-4.9,0.4-9.8,0.3-14.8-0.5
		c-4.4-0.7-8.8-2-12.9-3.9c-3.9-1.8-7.6-4.4-10.8-7.3c-2.7-2.6-5.1-5.8-6.8-9.4c-1.5-3.2-2.3-6.7-2.6-10.3
		C101.8,524.5,102,520.6,102.8,516.9z"/>
	<path d="M958.1,775.9c-2.2-1-4.8-1.6-7.3-1.5c-2.1,0-4.1,0.3-6.1,1.2c-1.9,0.9-3.6,2.1-5.1,3.6c-1.3,1.4-2.5,3-3.3,4.7
		c-0.8,1.7-1.5,3.6-1.7,5.5c-0.5,4.1,0.4,8.2,3.4,11c1.5,1.4,3.4,2.4,5.3,2.7c2,0.4,4.1,0.3,5.9-0.8c1.7-1,3-2.9,3.6-5
		c0.6-2,0.5-4.3-0.3-6.2c-0.7-1.7-1.9-3.1-3.4-4c-1.3-0.8-3-1.4-4.5-1.4c0.1-0.3,0.3-0.4,0.5-0.6c0.8-0.8,1.7-1.5,2.7-1.9
		c1.1-0.4,2.1-0.7,3.3-0.7c1.5,0,3,0.3,4.4,0.9c1.2,0.5,2.4,1.2,3.3,2.3c1,1.1,1.7,2.5,2.1,3.9c0.5,1.7,0.7,3.6,0.6,5.3
		c-0.1,1.7-0.6,3.4-1.3,5c-0.8,1.7-2,3.4-3.4,4.7c-1.7,1.7-3.7,3.2-5.8,4.4c-2.1,1-4.3,1.8-6.6,2.2c-2.6,0.4-5.1,0.3-7.7-0.4
		c-3.1-1-5.8-2.8-8.2-5.2c-4.5-4.4-7.8-9.4-10.5-15.2c-2.1-4.5-5.1-8.7-8.7-12c-3.9-3.7-8.3-6.6-13-8.8c-0.5-0.3-1.1-0.4-1.6-0.7
		h8.3c3.8,0,6.9-3.3,6.9-7.4s-3.1-7.4-6.9-7.4l-53.8-0.1v-0.1H165.5v0.1l-52.9,0.1c-1.7-1.1-3.3-2.3-5-3.5
		c12.9-8.6,8.4-23.2-0.2-32.8c-7.9,5.1-11,13.3-11.7,19.9c-1-2.6-3-4.9-3.9-7.6c13-19-18.3-27.5-18.3-27.5c0.8,5-0.9,9.8-1.2,15.3
		c0.2,12,8.4,15.7,17,14.3c1.3,4.7,5.3,9.5,7.7,14.1c-11.7-4.7-20.2,3.8-24.1,13.6c-0.3,1.2-1.2,2.4-1.2,2.4s4.8,3.1,7.6,3.7
		c11.8,1.9,20.4-2.7,26.2-11.2c0.5,0.5,1,0.9,1.5,1.4c-1.3,1.4-2.1,3.3-2.1,5.4c0,4.1,3.1,7.4,6.9,7.4h8.3c-0.5,0.3-1.1,0.4-1.6,0.7
		c-4.7,2.2-9.2,5.2-13,8.8c-3.6,3.3-6.6,7.4-8.7,12c-2.6,5.8-6,10.8-10.5,15.2c-2.4,2.4-5,4.1-8.2,5.2c-2.6,0.7-5.1,0.9-7.7,0.4
		c-2.3-0.3-4.5-1.1-6.6-2.2c-2.1-1.1-4.1-2.6-5.8-4.4c-1.4-1.3-2.6-3-3.4-4.7c-0.7-1.6-1.2-3.3-1.3-5c-0.2-1.7,0.1-3.6,0.6-5.3
		c0.4-1.4,1.1-2.8,2.1-3.9c0.9-1,2.1-1.7,3.3-2.3c1.4-0.6,2.9-0.9,4.4-0.9c1.2,0,2.2,0.3,3.3,0.7c1,0.4,1.9,1.1,2.7,1.9
		c0.2,0.2,0.4,0.3,0.5,0.6c-1.6,0-3.2,0.6-4.5,1.4c-1.5,1-2.7,2.3-3.4,4c-0.8,1.9-0.9,4.2-0.3,6.2c0.6,2.1,1.8,3.9,3.6,5
		c1.8,1,4,1.2,5.9,0.8c1.9-0.4,3.8-1.3,5.3-2.7c3-2.8,3.9-6.9,3.4-11c-0.2-1.9-0.9-3.8-1.7-5.5c-0.8-1.7-2-3.3-3.3-4.7
		c-1.5-1.5-3.2-2.7-5.1-3.6c-2-0.9-4-1.2-6.1-1.2c-2.5-0.1-5,0.4-7.3,1.5c-2.2,0.9-4.4,2.4-6.1,4.2c-7.9,8.3-4.4,22.9,2.9,30.4
		c2.2,2.3,4.9,4.3,7.7,5.7c2.8,1.5,5.8,2.5,8.8,3c3.6,0.6,7.3,0.4,10.9-0.7c4.3-1.3,8-3.8,11.2-7c0.7-0.6,1.3-1.3,2-1.9
		c0.2,2.9,0.6,5.8,1.2,8.5c0.8,3.1,2,5.9,3.5,8.5c-1.8,2.7-3.8,5.4-5.9,8c-8.1-13.2-22.9-9.3-32.8-1.1c4.8,8.1,12.9,11.5,19.4,12.4
		c-2.7,0.9-5,2.8-7.8,3.6c-14.8-10.2-23.9,2.6-28.2,17.3c5-0.6,9.8,1.3,15.3,1.8c12,0.2,16-7.8,14.9-16.5c4.8-1.1,9.7-4.9,14.4-7.1
		c-5.1,11.5,3,20.3,12.7,24.6c1.2,0.4,2.3,1.3,2.3,1.3s3.3-4.7,4-7.5c2.4-11.7-2-20.5-10.2-26.6c2-1.9,3.5-3.9,4.9-6.2
		c1.7,1.9,3.8,3.4,6.2,4.7c3.1,1.7,6.4,2.7,9.7,3.1c3.3,0.3,6.8,0.1,10-0.8c3.1-1,5.9-2.6,8.3-4.8c2.6-2.3,4.6-5.1,6.1-8.1
		c0.3-0.6,0.6-1.3,0.9-2c1.8,12,7.3,23.3,16.3,29.7c11,7.9,27.2,7.6,37.4,2.7c3.6-1.8,6.5-4.2,8.6-7.1c0.1,4.1,0.2,7.5,0.4,9.9
		c0.3,3.7,0.5,7.8,0.6,12.2c0.6,19.7,1.3,48.6,23.9,49c22.4-0.4,23.2-29.3,23.9-49c0.1-4.4,0.3-8.6,0.6-12.2c1.1-11.3,0-46-1.3-81.1
		c16.8,0.1,33.6-0.2,50.4-0.2c14.1,0,28.2,0,42.3,0c-9.1,48.7-17.4,93.3-18.6,98.8c-2.7,12.7-10.1,28.9-3.9,35.3
		c6.2,6.4,19.5,9.7,33.8,8c14.3-1.7,11.4-32.9,12.7-44.7c0.6-5.2,7.5-49.4,15.2-97.4c27.3,0,54.5,0,81.8,0
		c7.7,48,14.6,92.2,15.2,97.4c1.3,11.8-1.6,43,12.7,44.7c14.3,1.7,27.6-1.6,33.8-8c6.2-6.4-1.1-22.6-3.9-35.3
		c-1.2-5.5-9.5-50-18.6-98.8c15.5,0,31,0,46.5,0c12,0,24,0,36,0c-1.2,35.2-2.4,70-1.3,81.4c0.3,3.7,0.5,7.8,0.6,12.2
		c0.6,19.7,1.3,48.6,23.9,49c22.4-0.4,23.2-29.3,23.9-49c0.1-4.4,0.3-8.6,0.6-12.2c1.1-11.3,0-46.2-1.3-81.4c41.1,0,82.3,0,123.4,0
		c-1.2,35.2-2.4,70-1.3,81.4c0.3,3.7,0.5,7.8,0.6,12.2c0.6,19.7,1.3,48.6,23.9,49c22.4-0.4,23.2-29.3,23.9-49
		c0.1-4.4,0.3-8.6,0.6-12.2c0.3-3.1,0.4-8.1,0.5-14.3c2.2,4.8,5.8,8.9,11.2,11.5c3,1.5,6.5,2.5,10.3,3.1c-0.3,2.7,0,7.1-0.8,8.9
		c-15.2,4.4-11.5,17.7-3.9,28.8c2.4-3.7,6.3-5.9,9.7-9.4c6.8-8,3.6-15.2-2.9-19.3c1.2-2.4,1.7-5.5,2.2-8.6c1.3,0.1,2.7,0.1,4,0
		c1.8,3.3,5.8,9.1,6.7,11.8c-11.3,18.9,5.1,28.9,23.4,33c-1.2-6,0.8-12,0.9-18.8c-0.7-14.6-10.9-18.9-21.3-16.9
		c-1-3.2-3-6.4-5.1-9.6c5-0.8,9.9-2.7,14.1-5.6c9-6.5,14.5-17.8,16.3-29.7c0.3,0.7,0.6,1.4,0.9,2c1.5,3.1,3.6,5.9,6.1,8.1
		c2.4,2.2,5.3,3.8,8.3,4.8c3.2,0.9,6.7,1.1,10,0.8c3.3-0.4,6.7-1.5,9.7-3.1c6.7-3.6,10.8-9.6,12.8-17.2c0.7-2.7,1.1-5.6,1.2-8.5
		c0.7,0.6,1.3,1.3,2,1.9c3.2,3.2,6.9,5.7,11.2,7c3.6,1.1,7.3,1.3,10.9,0.7c3.1-0.4,6-1.5,8.8-3c2.8-1.4,5.4-3.4,7.7-5.7
		c4.6-4.7,7.2-11.4,7.2-17.9c0-4.5-1.5-9-4.4-12.3C962.5,778.3,960.5,776.9,958.1,775.9z M140.5,798.8c-1.9-2-4.2-3.5-6.8-4.3
		c-2.4-0.7-5-1-7.4-0.7c-2.4,0.4-5,1.2-6.8,2.8c-1.7,1.5-2.7,3.3-3.2,5.5c-0.5,2.1-0.4,4.4,0,6.5c0.7,3.1,2.5,5.6,5.2,7
		c1.2,0.6,2.4,1,3.7,1.1c1.2,0.1,2.6,0,3.8-0.4c2.5-0.9,4.8-2.9,5.8-5.5c0.7-2,0.7-4,0-5.9c0.8,1,1.4,2.2,1.7,3.5
		c0.4,1.9,0.5,3.9,0.2,5.9c-0.2,2.2-0.9,4.4-1.9,6.4c-1,2.1-2.4,3.9-4.1,5.4c-1.6,1.5-3.5,2.5-5.4,3.1c-2.2,0.6-4.5,0.8-6.9,0.5
		c-2.4-0.3-4.9-1-7-2.2c-4.5-2.5-7.3-6.6-8.6-11.9c-0.8-3.7-1.1-7.6-0.8-11.4c0.2-3.6,1.1-7.1,2.6-10.3c1.7-3.6,4-6.7,6.8-9.4
		c3.2-3,6.9-5.5,10.8-7.3c4.1-1.9,8.5-3.2,12.9-3.9c5-0.8,9.9-1,14.8-0.5c3.4,0.3,6.8,0.9,10.1,1.6c-0.6,0.5-1.2,1-1.8,1.5
		c-7.8,6.9-12.7,16.6-14.8,27.2C142.5,801.6,141.6,800.1,140.5,798.8z M205.9,810.1c-1.9-3.9-4.3-7.3-7.1-10
		c-3.7-3.5-8-5.7-12.8-6.6c-3.9-0.7-7.6-1-11.4,0.5c-7.4,2.8-12.6,10.6-13.5,18.3c-0.9,7.9,2.4,15.7,7.6,20c6.6,5.4,13,5.1,17.3,2.8
		c4-2,6.8-6.6,6.8-10.9c0.1-3.9-3.3-8.7-7.4-9.2c-3.1-0.5-5.8,2.8-5.8,6.2c0,2.5,1.5,4.8,3.5,5.8c-1.2,1.6-5.3,1.5-8.2-0.7
		c-3.6-2.6-6.3-8.6-4.7-14.1c1.6-5.4,7.2-10.3,13.6-9.3c6.4,1,13.1,8,15.4,16.6c2.3,8.4,0.2,18.5-6.4,23.4c-6.7,5-17.9,4.8-26.2-0.7
		c-8.3-5.6-13.5-16.6-13.5-27.8c0-11.2,5.1-22.8,14.5-30.4c12.9-10.4,39.5-9,39.5-9C206.6,787.2,206.2,799.1,205.9,810.1z
		 M848,842.4c-8.3,5.5-19.5,5.7-26.2,0.7c-6.7-5-8.8-15-6.4-23.4c2.3-8.6,9.1-15.6,15.4-16.6c6.4-1,12,3.9,13.6,9.3
		c1.6,5.5-1.1,11.4-4.7,14.1c-2.9,2.2-7,2.3-8.2,0.7c2-1,3.5-3.2,3.5-5.8c0-3.4-2.6-6.7-5.8-6.2c-4,0.5-7.5,5.3-7.4,9.2
		c0,4.4,2.8,8.9,6.8,10.9c4.3,2.3,10.7,2.6,17.3-2.8c5.2-4.3,8.5-12.2,7.6-20c-0.9-7.7-6.1-15.5-13.5-18.3
		c-3.8-1.5-7.5-1.2-11.4-0.5c-4.8,0.9-9.1,3.1-12.8,6.6c-4.2,4.1-7.6,9.8-9.6,16.1c-0.3-12.7-0.8-26.8-1.3-41.1c0,0,29.8-0.8,42.2,9
		c9.4,7.6,14.5,19.2,14.5,30.4C861.6,825.8,856.3,836.8,848,842.4z M911.8,815.8c-1.3,5.2-4,9.4-8.6,11.9c-2.1,1.1-4.6,1.9-7,2.2
		c-2.3,0.3-4.6,0.1-6.9-0.5c-2-0.6-3.9-1.7-5.4-3.1c-1.7-1.5-3.1-3.3-4.1-5.4c-1-2-1.7-4.2-1.9-6.4c-0.2-2-0.2-4,0.2-5.9
		c0.3-1.3,0.9-2.5,1.7-3.5c-0.7,1.8-0.7,3.8,0,5.9c1,2.6,3.3,4.6,5.8,5.5c1.2,0.4,2.6,0.5,3.8,0.4c1.3-0.1,2.6-0.5,3.7-1.1
		c2.7-1.4,4.5-3.8,5.2-7c0.4-2.1,0.5-4.4,0-6.5c-0.5-2.2-1.6-4-3.2-5.5c-1.8-1.6-4.4-2.4-6.8-2.8c-2.4-0.3-5,0-7.4,0.7
		c-2.6,0.8-4.9,2.3-6.8,4.3c-1.2,1.3-2.1,2.8-2.8,4.4c-2.1-10.6-7-20.3-14.8-27.2c-0.6-0.5-1.2-1-1.8-1.5c3.3-0.7,6.7-1.3,10.1-1.6
		c4.9-0.4,9.8-0.3,14.8,0.5c4.4,0.7,8.8,2,12.9,3.9c3.9,1.8,7.6,4.4,10.8,7.3c2.7,2.6,5.1,5.8,6.8,9.4c1.5,3.2,2.3,6.7,2.6,10.3
		C912.9,808.2,912.6,812.1,911.8,815.8z"/>
</g>
</svg>
